<?xml version="1.0" standalone="yes"?>

<svg version="1.1" viewBox="0.0 0.0 2296.9002624671916 861.9711286089239" fill="none" stroke="none" stroke-linecap="square" stroke-miterlimit="10" xmlns="http://www.w3.org/2000/svg" xmlns:xlink="http://www.w3.org/1999/xlink"><clipPath id="p.0"><path d="m0 0l2296.9001 0l0 861.9711l-2296.9001 0l0 -861.9711z" clip-rule="nonzero"></path></clipPath><g clip-path="url(#p.0)"><path fill="#000000" fill-opacity="0.0" d="m0 0l2296.9001 0l0 861.9711l-2296.9001 0z" fill-rule="evenodd"></path><path fill="#a61c00" d="m88.46957 291.3882l0 0c0 -7.741516 6.275734 -14.017242 14.017242 -14.017242l63.44085 0c3.7176056 0 7.282959 1.4768066 9.911697 4.1055603c2.6287384 2.6287537 4.1055603 6.194092 4.1055603 9.911682l0 56.06729c0 7.741516 -6.2757416 14.017242 -14.017258 14.017242l-63.44085 0c-7.7415085 0 -14.017242 -6.2757263 -14.017242 -14.017242z" fill-rule="evenodd"></path><path stroke="#000000" stroke-width="1.0" stroke-linejoin="round" stroke-linecap="butt" d="m88.46957 291.3882l0 0c0 -7.741516 6.275734 -14.017242 14.017242 -14.017242l63.44085 0c3.7176056 0 7.282959 1.4768066 9.911697 4.1055603c2.6287384 2.6287537 4.1055603 6.194092 4.1055603 9.911682l0 56.06729c0 7.741516 -6.2757416 14.017242 -14.017258 14.017242l-63.44085 0c-7.7415085 0 -14.017242 -6.2757263 -14.017242 -14.017242z" fill-rule="evenodd"></path><path fill="#000000" d="m122.94152 296.92438l11.328117 16.890625l11.265625 -16.890625l9.53125 0l-16.1875 23.03125l15.6875 22.40625l-9.546875 0l-10.75 -16.25l-10.812492 16.25l-9.609375 0l15.687492 -22.40625l-16.187492 -23.03125l9.59375 0z" fill-rule="nonzero"></path><path fill="#ff9900" d="m533.52045 291.3882l0 0c0 -7.741516 6.275757 -14.017242 14.017273 -14.017242l63.440857 0c3.7175903 0 7.282959 1.4768066 9.911682 4.1055603c2.6287231 2.6287537 4.10553 6.194092 4.10553 9.911682l0 56.06729c0 7.741516 -6.275696 14.017242 -14.017212 14.017242l-63.440857 0c-7.741516 0 -14.017273 -6.2757263 -14.017273 -14.017242z" fill-rule="evenodd"></path><path stroke="#000000" stroke-width="1.0" stroke-linejoin="round" stroke-linecap="butt" d="m533.52045 291.3882l0 0c0 -7.741516 6.275757 -14.017242 14.017273 -14.017242l63.440857 0c3.7175903 0 7.282959 1.4768066 9.911682 4.1055603c2.6287231 2.6287537 4.10553 6.194092 4.10553 9.911682l0 56.06729c0 7.741516 -6.275696 14.017242 -14.017212 14.017242l-63.440857 0c-7.741516 0 -14.017273 -6.2757263 -14.017273 -14.017242z" fill-rule="evenodd"></path><path fill="#000000" d="m566.2676 348.89313q1.09375 0.3125 2.109375 0.46875q1.03125 0.171875 1.734375 0.171875q0.828125 0 1.53125 -0.328125q0.703125 -0.3125 1.28125 -1.125q0.578125 -0.796875 1.140625 -2.203125q0.578125 -1.40625 1.21875 -3.515625l-13.234375 -33.53125l8.828125 0l9.078125 26.109375l8.078125 -26.109375l8.0625 0l-14.078125 40.1875q-1.21875 3.515625 -4.171875 5.75q-2.9375 2.25 -7.296875 2.25q-1.015625 0 -2.078125 -0.15625q-1.046875 -0.15625 -2.203125 -0.546875l0 -7.421875z" fill-rule="nonzero"></path><path fill="#000000" fill-opacity="0.0" d="m179.94492 319.42188l335.61703 3.4713135" fill-rule="evenodd"></path><path stroke="#000000" stroke-width="8.0" stroke-linejoin="round" stroke-linecap="butt" d="m179.9449 319.42184l287.61963 2.974884" fill-rule="evenodd"></path><path fill="#000000" stroke="#000000" stroke-width="8.0" stroke-linecap="butt" d="m467.42786 335.6099l36.439514 -12.837677l-36.16617 -13.588623z" fill-rule="evenodd"></path><path fill="#000000" fill-opacity="0.0" d="m105.23722 254.44365l166.9826 -178.1387l74.836945 69.282814l-166.98262 178.13872z" fill-rule="evenodd"></path><path fill="#000000" d="m209.57213 269.34586l-21.624954 -20.02002q-7.2579956 -6.719345 -8.071442 -12.774246q-0.81422424 -6.0769196 4.2615356 -11.491791q5.0543823 -5.39209 11.782013 -5.1895447q6.726837 0.18054199 12.631851 5.6473083q5.9279327 5.4879913 6.7470856 12.016602q0.8076782 6.5180054 -3.9154663 11.556686q-4.402542 4.696686 -9.970474 4.6734924l12.188416 11.283813l-4.0285645 4.297699zm-21.729233 -41.110962q-2.9279022 3.1235352 -2.2824097 7.2556763q0.6446991 4.1101227 5.9076233 8.982437q4.723999 4.373413 8.81633 4.691345q4.103012 0.3065338 7.105728 -2.8967896q3.0133972 -3.2147217 2.4846802 -7.494278q-0.54019165 -4.290161 -5.218338 -8.621109q-5.331711 -4.93602 -9.688843 -4.9029083q-4.346451 0.021697998 -7.124771 2.9856262z" fill-rule="nonzero"></path><path fill="#000000" d="m228.01135 211.2001l-2.4078674 -2.2291718l13.838135 -14.762665l2.4078674 2.2291718l-13.838135 14.762665zm-5.652771 -5.233246l-2.4078674 -2.2291565l13.838135 -14.762665l2.4078827 2.2291718l-13.83815 14.76265zm40.786224 -33.024292q-3.244873 -3.004074 -4.2193604 -5.7799683q-0.9859314 -2.786499 -0.23904419 -6.1193237q0.3227234 -1.5323639 0.8049927 -3.2577362q0.48147583 -1.7473907 0.56030273 -3.5907288q0.089538574 -1.8547363 -0.474823 -3.6973267q-0.57580566 -1.8532104 -2.3874512 -3.5303955q-1.6281738 -1.5073395 -3.34346 -2.030716q-1.7046204 -0.5347595 -3.3834686 -0.34303284q-1.6796417 0.16970825 -3.1914978 1.0057678q-1.5233307 0.82543945 -2.7094574 2.090805q-2.4790955 2.6447449 -2.9677277 6.0676117q-0.5001068 3.4122467 0.60595703 6.459015l-3.6269684 0.9219971q-0.88383484 -2.0957794 -1.0603638 -4.2607117q-0.17654419 -2.1649323 0.2817688 -4.2531586q0.44683838 -2.0988312 1.4766388 -4.019943q1.0183411 -1.9317169 2.535736 -3.550476q1.6990356 -1.812561 3.8752136 -2.9917755q2.1647034 -1.1898193 4.6066437 -1.4416351q2.4304504 -0.2624359 4.9557037 0.5849304q2.5244446 0.82533264 4.8864746 3.0120392q1.9606934 1.8151855 2.7900696 3.6263428q0.8293762 1.8111725 0.9392395 3.658844q0.120513916 1.8362732 -0.30126953 3.7027893q-0.4111328 1.8551025 -0.86654663 3.7117767q-0.32977295 1.3342285 -0.55111694 2.5984955q-0.21066284 1.2528534 0.0050354004 2.6449127q0.21566772 1.3920593 1.054718 2.8502045q0.8276062 1.447525 2.604828 3.092865l-2.6607666 2.8385315zm9.983032 9.135651l-5.262909 -4.8723145l2.7034912 -2.88414l5.2629395 4.8723297l-2.7035217 2.8841248z" fill-rule="nonzero"></path><path fill="#000000" fill-opacity="0.0" d="m414.89615 79.245995l183.23795 161.3327l-67.82245 76.105774l-183.23795 -161.33273z" fill-rule="evenodd"></path><path fill="#000000" d="m403.6538 184.34749l19.606232 -22.000763q6.5804443 -7.3841553 12.650421 -8.347733q6.092102 -0.9649353 11.662567 3.9395905q5.5469666 4.8838806 5.5079956 11.573837q-0.01687622 6.688629 -5.370636 12.696259q-5.3745728 6.03096 -11.920837 7.0123596q-6.5358887 0.9697418 -11.71933 -3.5940552q-4.8316345 -4.2540283 -4.944641 -9.787064l-11.050598 12.400223l-4.421173 -3.8926544zm40.816498 -22.645416q-3.2132874 -2.829132 -7.353485 -2.0817566q-4.118103 0.7460327 -8.889709 6.100418q-4.28302 4.8061066 -4.502594 8.880524q-0.2078247 4.084732 3.0875244 6.986145q3.3070984 2.9117432 7.598419 2.276596q4.3017273 -0.6468048 8.543152 -5.40625q4.834015 -5.424362 4.694031 -9.752899q-0.12826538 -4.3181915 -3.1773376 -7.002777z" fill-rule="nonzero"></path><path fill="#000000" d="m462.58707 201.17766l2.183075 -2.449707l15.186798 13.371277l-2.183075 2.4497223l-15.186798 -13.371292zm5.125061 -5.750992l2.1831055 -2.4497223l15.186768 13.371292l-2.183075 2.449707l-15.186798 -13.371277zm40.653564 57.84012l-2.7652588 3.1029663l-17.051422 -15.0130005l2.7652588 -3.1029816l7.141876 6.2881165l19.07608 -21.405838q-0.92889404 0.24386597 -2.5377197 0.07646179q-1.5971069 -0.15708923 -3.322174 -0.5933533q-1.7146301 -0.44792175 -3.3332825 -1.1444397q-1.6082764 -0.7081909 -2.5699158 -1.5548706l2.941986 -3.3012848q1.1610107 1.0222168 3.1269836 1.5873413q1.9659729 0.5651245 3.9458313 0.8093872q1.9902344 0.23258972 3.5116577 0.23976135q1.5317993 -0.004501343 1.8439331 -0.16687012l3.5181885 3.0975952l-22.68338 25.453705l6.3913574 5.627304z" fill-rule="nonzero"></path><path fill="#000000" fill-opacity="0.0" d="m340.85556 157.64578l-160.9018 161.78757" fill-rule="evenodd"></path><path stroke="#000000" stroke-width="8.0" stroke-linejoin="round" stroke-linecap="butt" d="m340.85556 157.64578l-127.05397 127.75342" fill-rule="evenodd"></path><path fill="#000000" stroke="#000000" stroke-width="8.0" stroke-linecap="butt" d="m204.43237 276.08127l-16.231583 35.05966l34.970016 -16.423798z" fill-rule="evenodd"></path><path fill="#000000" fill-opacity="0.0" d="m340.85556 157.64578l182.08884 156.04193" fill-rule="evenodd"></path><path stroke="#000000" stroke-width="8.0" stroke-linejoin="round" stroke-linecap="butt" d="m340.85556 157.64578l145.64111 124.80789" fill-rule="evenodd"></path><path fill="#000000" stroke="#000000" stroke-width="8.0" stroke-linecap="butt" d="m477.89832 292.48734l36.16559 13.59021l-18.968842 -33.6575z" fill-rule="evenodd"></path><path fill="#000000" fill-opacity="0.0" d="m222.11093 227.4851l245.24298 0l0 77.39853l-245.24298 0z" fill-rule="evenodd"></path><path fill="#000000" d="m282.5957 313.7976l0 -29.46875q0 -9.890625 3.890625 -14.625q3.90625 -4.75 11.328125 -4.75q7.390625 0 11.8125 5.046875q4.4375 5.03125 4.4375 13.078125q0 8.078125 -4.234375 13.140625q-4.234375 5.046875 -11.140625 5.046875q-6.4375 0 -10.203125 -4.078125l0 16.609375l-5.890625 0zm15.40625 -43.96875q-4.28125 0 -6.875 3.296875q-2.578125 3.28125 -2.578125 10.453125q0 6.4375 2.546875 9.640625q2.5625 3.203125 6.953125 3.203125q4.40625 0 7.1875 -3.3125q2.78125 -3.328125 2.78125 -9.703125q0 -7.265625 -2.984375 -10.421875q-2.96875 -3.15625 -7.03125 -3.15625z" fill-rule="nonzero"></path><path fill="#000000" d="m337.7916 287.4851l0 -3.28125l20.234375 0l0 3.28125l-20.234375 0zm0 -7.703125l0 -3.28125l20.234375 0l0 3.28125l-20.234375 0zm51.94284 7.171875q0 -4.421875 1.375 -7.03125q1.375 -2.625 4.328125 -4.359375q1.34375 -0.8125 2.9375 -1.640625q1.609375 -0.84375 3.015625 -2.046875q1.421875 -1.203125 2.390625 -2.875q0.96875 -1.6875 0.96875 -4.15625q0 -2.21875 -0.78125 -3.828125q-0.765625 -1.609375 -2.046875 -2.703125q-1.265625 -1.109375 -2.90625 -1.640625q-1.640625 -0.546875 -3.375 -0.546875q-3.625 0 -6.46875 1.984375q-2.84375 1.96875 -4.328125 4.859375l-3.140625 -2.015625q0.9375 -2.078125 2.40625 -3.6875q1.46875 -1.609375 3.3125 -2.703125q1.84375 -1.109375 3.953125 -1.671875q2.109375 -0.578125 4.328125 -0.578125q2.484375 0 4.828125 0.78125q2.34375 0.765625 4.1875 2.375q1.84375 1.59375 2.9375 4.015625q1.109375 2.40625 1.109375 5.625q0 2.671875 -0.765625 4.515625q-0.765625 1.84375 -2.046875 3.1875q-1.265625 1.34375 -2.921875 2.3125q-1.640625 0.96875 -3.3125 1.90625q-1.203125 0.671875 -2.28125 1.375q-1.0625 0.703125 -1.9375 1.8125q-0.875 1.109375 -1.375 2.71875q-0.5 1.59375 -0.5 4.015625l-3.890625 0zm0.078125 13.53125l0 -7.171875l3.953125 0l0 7.171875l-3.953125 0z" fill-rule="nonzero"></path><path fill="#4a86e8" d="m295.1179 87.56125l0 0c0 -7.7415085 6.2757263 -14.017242 14.017242 -14.017242l63.440857 0c3.7176208 0 7.282959 1.4768066 9.911682 4.1055527c2.6287537 2.628746 4.1055603 6.194084 4.1055603 9.91169l0 56.06729c0 7.741501 -6.2757263 14.017242 -14.017242 14.017242l-63.440857 0c-7.741516 0 -14.017242 -6.2757416 -14.017242 -14.017242z" fill-rule="evenodd"></path><path stroke="#000000" stroke-width="1.0" stroke-linejoin="round" stroke-linecap="butt" d="m295.1179 87.56125l0 0c0 -7.7415085 6.2757263 -14.017242 14.017242 -14.017242l63.440857 0c3.7176208 0 7.282959 1.4768066 9.911682 4.1055527c2.6287537 2.628746 4.1055603 6.194084 4.1055603 9.91169l0 56.06729c0 7.741501 -6.2757263 14.017242 -14.017242 14.017242l-63.440857 0c-7.741516 0 -14.017242 -6.2757416 -14.017242 -14.017242z" fill-rule="evenodd"></path><path fill="#000000" d="m324.60446 121.769264q0 -3.515625 1.203125 -6.65625q1.21875 -3.140625 3.515625 -5.5q2.3125 -2.375 5.578125 -3.78125q3.265625 -1.40625 7.359375 -1.40625q5.5 0 9.375 2.375q3.875 2.359375 5.796875 6.203125l-8.390625 2.5625q-1.078125 -1.859375 -2.875 -2.84375q-1.796875 -1.0 -3.96875 -1.0q-1.859375 0 -3.453125 0.734375q-1.59375 0.734375 -2.78125 2.046875q-1.1875 1.3125 -1.859375 3.171875q-0.671875 1.84375 -0.671875 4.09375q0 2.234375 0.703125 4.09375q0.703125 1.859375 1.890625 3.2031326q1.1875 1.34375 2.78125 2.078125q1.59375 0.734375 3.390625 0.734375q2.3125 0 4.25 -1.140625q1.953125 -1.15625 2.734375 -2.8281326l8.375 2.5625076q-1.71875 3.84375 -5.6875 6.28125q-3.96875 2.421875 -9.546875 2.421875q-4.09375 0 -7.359375 -1.40625q-3.265625 -1.40625 -5.578125 -3.796875q-2.296875 -2.40625 -3.546875 -5.578125q-1.234375 -3.1718826 -1.234375 -6.6250076z" fill-rule="nonzero"></path><path fill="#a61c00" d="m857.56665 275.3882l0 0c0 -7.741516 6.275757 -14.017242 14.017273 -14.017242l63.440857 0c3.7175903 0 7.282959 1.4768066 9.911682 4.1055603c2.6287231 2.6287537 4.10553 6.194092 4.10553 9.911682l0 56.06729c0 7.741516 -6.275696 14.017242 -14.017212 14.017242l-63.440857 0c-7.741516 0 -14.017273 -6.2757263 -14.017273 -14.017242z" fill-rule="evenodd"></path><path stroke="#000000" stroke-width="1.0" stroke-linejoin="round" stroke-linecap="butt" d="m857.56665 275.3882l0 0c0 -7.741516 6.275757 -14.017242 14.017273 -14.017242l63.440857 0c3.7175903 0 7.282959 1.4768066 9.911682 4.1055603c2.6287231 2.6287537 4.10553 6.194092 4.10553 9.911682l0 56.06729c0 7.741516 -6.275696 14.017242 -14.017212 14.017242l-63.440857 0c-7.741516 0 -14.017273 -6.2757263 -14.017273 -14.017242z" fill-rule="evenodd"></path><path fill="#000000" d="m892.03864 280.92438l11.328125 16.890625l11.265625 -16.890625l9.53125 0l-16.1875 23.03125l15.6875 22.40625l-9.546875 0l-10.75 -16.25l-10.8125 16.25l-9.609375 0l15.6875 -22.40625l-16.1875 -23.03125l9.59375 0z" fill-rule="nonzero"></path><path fill="#ff9900" d="m1302.6176 275.3882l0 0c0 -7.741516 6.275757 -14.017242 14.017334 -14.017242l63.440796 0c3.7176514 0 7.282959 1.4768066 9.911743 4.1055603c2.628662 2.6287537 4.1054688 6.194092 4.1054688 9.911682l0 56.06729c0 7.741516 -6.275757 14.017242 -14.017212 14.017242l-63.440796 0c-7.741577 0 -14.017334 -6.2757263 -14.017334 -14.017242z" fill-rule="evenodd"></path><path stroke="#000000" stroke-width="1.0" stroke-linejoin="round" stroke-linecap="butt" d="m1302.6176 275.3882l0 0c0 -7.741516 6.275757 -14.017242 14.017334 -14.017242l63.440796 0c3.7176514 0 7.282959 1.4768066 9.911743 4.1055603c2.628662 2.6287537 4.1054688 6.194092 4.1054688 9.911682l0 56.06729c0 7.741516 -6.275757 14.017242 -14.017212 14.017242l-63.440796 0c-7.741577 0 -14.017334 -6.2757263 -14.017334 -14.017242z" fill-rule="evenodd"></path><path fill="#000000" d="m1335.3646 332.89313q1.09375 0.3125 2.109375 0.46875q1.03125 0.171875 1.734375 0.171875q0.828125 0 1.53125 -0.328125q0.703125 -0.3125 1.28125 -1.125q0.578125 -0.796875 1.140625 -2.203125q0.578125 -1.40625 1.21875 -3.515625l-13.234375 -33.53125l8.828125 0l9.078125 26.109375l8.078125 -26.109375l8.0625 0l-14.078125 40.1875q-1.21875 3.515625 -4.171875 5.75q-2.9375 2.25 -7.296875 2.25q-1.015625 0 -2.078125 -0.15625q-1.046875 -0.15625 -2.203125 -0.546875l0 -7.421875z" fill-rule="nonzero"></path><path fill="#000000" fill-opacity="0.0" d="m949.042 303.42188l335.61707 3.4713135" fill-rule="evenodd"></path><path stroke="#000000" stroke-width="8.0" stroke-linejoin="round" stroke-linecap="butt" d="m949.042 303.42184l287.61963 2.974884" fill-rule="evenodd"></path><path fill="#000000" stroke="#000000" stroke-width="8.0" stroke-linecap="butt" d="m1236.525 319.6099l36.439453 -12.837677l-36.166138 -13.588623z" fill-rule="evenodd"></path><path fill="#000000" fill-opacity="0.0" d="m874.33435 238.44365l166.98254 -178.13872l74.836914 69.28282l-166.98254 178.13872z" fill-rule="evenodd"></path><path fill="#000000" d="m975.5694 256.6528l-21.624939 -20.020035q-7.2579956 -6.719345 -8.071472 -12.774246q-0.814209 -6.0769196 4.2615356 -11.491791q5.0544434 -5.3920746 11.782043 -5.1895447q6.7268066 0.18054199 12.631836 5.6473083q5.9279785 5.4879913 6.7470703 12.016602q0.8076782 6.5180054 -3.9154053 11.556686q-4.402588 4.696686 -9.97052 4.6734924l12.188416 11.283829l-4.0285645 4.297699zm-21.729187 -41.110977q-2.9279175 3.1235352 -2.2824707 7.2556763q0.64471436 4.1101227 5.907654 8.982437q4.723999 4.373413 8.816345 4.691345q4.1029663 0.3065338 7.105713 -2.8967896q3.0134277 -3.2147217 2.4846802 -7.494278q-0.54022217 -4.290161 -5.2183228 -8.621109q-5.331726 -4.93602 -9.688843 -4.9029083q-4.3464966 0.021697998 -7.124756 2.9856262z" fill-rule="nonzero"></path><path fill="#000000" d="m994.0086 198.50703l-2.407837 -2.2291718l13.838135 -14.762665l2.407837 2.2291718l-13.838135 14.762665zm-5.65271 -5.233246l-2.407898 -2.2291565l13.838135 -14.762665l2.407898 2.2291718l-13.838135 14.76265zm54.77948 -56.86293q3.244995 3.004074 5.0976562 6.4652405q1.8632812 3.449768 2.3197021 6.9383545q0.4555664 3.466568 -0.5373535 6.741974q-1.0043945 3.264801 -3.4835205 5.909546q-2.4683838 2.6333313 -5.6849365 3.8714294q-3.2172852 1.216095 -6.739746 1.0212402q-3.5230713 -0.21685791 -7.128296 -1.8084717q-3.5944214 -1.6030121 -6.8393555 -4.607071q-3.244873 -3.004074 -5.1082153 -6.453842q-1.8527222 -3.4611664 -2.3197021 -6.9383545q-0.45635986 -3.4885864 0.52508545 -6.774597q0.98065186 -3.3080444 3.4490967 -5.941391q2.479065 -2.6447296 5.7193604 -3.8395844q3.2287598 -1.2054749 6.751953 -0.98861694q3.5338135 0.2054596 7.128296 1.8084717q3.6051025 1.5916138 6.8499756 4.5956726zm-3.1522217 3.3629303q-2.6601562 -2.4626923 -5.435547 -3.7971497q-2.7868652 -1.3450623 -5.435425 -1.6039276q-2.6485596 -0.25886536 -5.047241 0.5865631q-2.3995361 0.8234253 -4.237488 2.7841797q-1.8806763 2.0063477 -2.5480347 4.454651q-0.6680908 2.4263 -0.2208252 5.0335083q0.44726562 2.6072083 1.9945679 5.274643q1.5358276 2.6568146 4.195984 5.119522q2.6486816 2.4520721 5.435547 3.7971497q2.7868652 1.3450623 5.435425 1.6039276q2.6484375 0.2588501 5.01355 -0.596405q2.36438 -0.87727356 4.244995 -2.8836365q1.8380127 -1.9607544 2.5405273 -4.355194q0.7017822 -2.4164581 0.2545166 -5.0236664q-0.44726562 -2.6072083 -1.9946289 -5.274643q-1.5473633 -2.6674347 -4.195923 -5.119522z" fill-rule="nonzero"></path><path fill="#000000" fill-opacity="0.0" d="m1183.9933 63.24599l183.23792 161.33272l-67.82239 76.105774l-183.23804 -161.33273z" fill-rule="evenodd"></path><path fill="#000000" d="m1172.751 168.34749l19.606201 -22.000763q6.5804443 -7.3841553 12.650391 -8.347733q6.092163 -0.9649353 11.662598 3.9395905q5.546997 4.8838806 5.5079346 11.573837q-0.016845703 6.688629 -5.3706055 12.696259q-5.3745117 6.03096 -11.920898 7.0123596q-6.5358887 0.9697418 -11.719238 -3.5940552q-4.831665 -4.2540283 -4.944702 -9.787064l-11.050537 12.400223l-4.4211426 -3.8926544zm40.816406 -22.645416q-3.2132568 -2.829132 -7.3533936 -2.0817566q-4.118164 0.7460327 -8.8897705 6.100418q-4.282959 4.8061066 -4.5025635 8.880524q-0.20788574 4.084732 3.0875244 6.986145q3.3070068 2.9117432 7.5983887 2.276596q4.301758 -0.6468048 8.543213 -5.40625q4.8339844 -5.424362 4.6939697 -9.752899q-0.1282959 -4.3181915 -3.1773682 -7.002777z" fill-rule="nonzero"></path><path fill="#000000" d="m1231.6842 185.17766l2.1831055 -2.449707l15.186768 13.371277l-2.1831055 2.4497223l-15.186768 -13.371292zm5.125 -5.750992l2.1831055 -2.4497223l15.186768 13.371292l-2.1829834 2.449707l-15.18689 -13.371277zm40.653564 57.84012l-2.7652588 3.1029663l-17.051392 -15.0130005l2.7652588 -3.1029816l7.1418457 6.2881165l19.07605 -21.405838q-0.928833 0.24386597 -2.5377197 0.07646179q-1.5970459 -0.15708923 -3.3221436 -0.5933533q-1.7145996 -0.44792175 -3.333252 -1.1444397q-1.6082764 -0.7081909 -2.5699463 -1.5548706l2.9420166 -3.3012848q1.1610107 1.0222168 3.1269531 1.5873413q1.9659424 0.5651245 3.9458008 0.8093872q1.9902344 0.23258972 3.5117188 0.23976135q1.5317383 -0.004501343 1.8438721 -0.16687012l3.5181885 3.0975952l-22.68335 25.453705l6.3913574 5.627304z" fill-rule="nonzero"></path><path fill="#000000" fill-opacity="0.0" d="m1109.9526 141.64578l-160.90173 161.78757" fill-rule="evenodd"></path><path stroke="#000000" stroke-width="8.0" stroke-linejoin="round" stroke-linecap="butt" d="m1109.9526 141.64578l-127.053955 127.75342" fill-rule="evenodd"></path><path fill="#000000" stroke="#000000" stroke-width="8.0" stroke-linecap="butt" d="m973.5295 260.08127l-16.231567 35.05966l34.96997 -16.423798z" fill-rule="evenodd"></path><path fill="#000000" fill-opacity="0.0" d="m1109.9526 141.64578l182.08887 156.04193" fill-rule="evenodd"></path><path stroke="#000000" stroke-width="8.0" stroke-linejoin="round" stroke-linecap="butt" d="m1109.9526 141.64578l145.64124 124.80789" fill-rule="evenodd"></path><path fill="#000000" stroke="#000000" stroke-width="8.0" stroke-linecap="butt" d="m1246.9955 276.48734l36.165527 13.59021l-18.968872 -33.6575z" fill-rule="evenodd"></path><path fill="#000000" fill-opacity="0.0" d="m991.20807 211.4851l245.24298 0l0 77.39853l-245.24298 0z" fill-rule="evenodd"></path><path fill="#000000" d="m1047.1602 297.7976l0 -29.46875q0 -9.890625 3.890625 -14.625q3.90625 -4.75 11.328125 -4.75q7.390625 0 11.8125 5.046875q4.4375 5.03125 4.4375 13.078125q0 8.078125 -4.234375 13.140625q-4.234375 5.046875 -11.140625 5.046875q-6.4375 0 -10.203125 -4.078125l0 16.609375l-5.890625 0zm15.40625 -43.96875q-4.28125 0 -6.875 3.296875q-2.578125 3.28125 -2.578125 10.453125q0 6.4375 2.546875 9.640625q2.5625 3.203125 6.953125 3.203125q4.40625 0 7.1875 -3.3125q2.78125 -3.328125 2.78125 -9.703125q0 -7.265625 -2.984375 -10.421875q-2.96875 -3.15625 -7.03125 -3.15625z" fill-rule="nonzero"></path><path fill="#000000" d="m1102.3561 271.4851l0 -3.28125l20.234375 0l0 3.28125l-20.234375 0zm0 -7.703125l0 -3.28125l20.234375 0l0 3.28125l-20.234375 0zm78.94287 1.078125q0 4.421875 -1.28125 8.140625q-1.265625 3.71875 -3.515625 6.4375q-2.234375 2.703125 -5.3125 4.21875q-3.078125 1.5 -6.703125 1.5q-3.609375 0 -6.703125 -1.5q-3.078125 -1.515625 -5.328125 -4.21875q-2.234375 -2.71875 -3.515625 -6.4375q-1.265625 -3.71875 -1.265625 -8.140625q0 -4.421875 1.265625 -8.140625q1.28125 -3.71875 3.515625 -6.4375q2.25 -2.71875 5.328125 -4.25q3.09375 -1.546875 6.703125 -1.546875q3.625 0 6.703125 1.546875q3.078125 1.53125 5.3125 4.25q2.25 2.71875 3.515625 6.4375q1.28125 3.71875 1.28125 8.140625zm-4.609375 0q0 -3.625 -0.90625 -6.5625q-0.90625 -2.953125 -2.515625 -5.0625q-1.609375 -2.109375 -3.859375 -3.28125q-2.234375 -1.1875 -4.921875 -1.1875q-2.75 0 -5.0 1.1875q-2.234375 1.171875 -3.84375 3.28125q-1.609375 2.109375 -2.515625 5.0625q-0.90625 2.9375 -0.90625 6.5625q0 3.609375 0.90625 6.5625q0.90625 2.953125 2.515625 5.0625q1.609375 2.109375 3.84375 3.25q2.25 1.125 5.0 1.125q2.6875 0 4.921875 -1.125q2.25 -1.140625 3.859375 -3.25q1.609375 -2.109375 2.515625 -5.0625q0.90625 -2.953125 0.90625 -6.5625z" fill-rule="nonzero"></path><path fill="#4a86e8" d="m1064.215 71.56125l0 0c0 -7.7415123 6.275757 -14.017246 14.017334 -14.017246l63.440796 0c3.7176514 0 7.282959 1.4768143 9.911743 4.1055565c2.628662 2.628746 4.1054688 6.194084 4.1054688 9.91169l0 56.067284c0 7.7415085 -6.275635 14.01725 -14.017212 14.01725l-63.440796 0c-7.741577 0 -14.017334 -6.2757416 -14.017334 -14.01725z" fill-rule="evenodd"></path><path stroke="#000000" stroke-width="1.0" stroke-linejoin="round" stroke-linecap="butt" d="m1064.215 71.56125l0 0c0 -7.7415123 6.275757 -14.017246 14.017334 -14.017246l63.440796 0c3.7176514 0 7.282959 1.4768143 9.911743 4.1055565c2.628662 2.628746 4.1054688 6.194084 4.1054688 9.91169l0 56.067284c0 7.7415085 -6.275635 14.01725 -14.017212 14.01725l-63.440796 0c-7.741577 0 -14.017334 -6.2757416 -14.017334 -14.01725z" fill-rule="evenodd"></path><path fill="#000000" d="m1093.7015 105.769264q0 -3.515625 1.203125 -6.65625q1.21875 -3.140625 3.515625 -5.5q2.3125 -2.375 5.578125 -3.78125q3.265625 -1.40625 7.359375 -1.40625q5.5 0 9.375 2.375q3.875 2.359375 5.796875 6.203125l-8.390625 2.5625q-1.078125 -1.859375 -2.875 -2.84375q-1.796875 -1.0 -3.96875 -1.0q-1.859375 0 -3.453125 0.734375q-1.59375 0.734375 -2.78125 2.046875q-1.1875 1.3125 -1.859375 3.171875q-0.671875 1.84375 -0.671875 4.09375q0 2.234375 0.703125 4.09375q0.703125 1.859375 1.890625 3.203125q1.1875 1.34375 2.78125 2.078125q1.59375 0.734375 3.390625 0.734375q2.3125 0 4.25 -1.140625q1.953125 -1.15625 2.734375 -2.828125l8.375 2.5625q-1.71875 3.84375 -5.6875 6.28125q-3.96875 2.421875 -9.546875 2.421875q-4.09375 0 -7.359375 -1.40625q-3.265625 -1.40625 -5.578125 -3.796875q-2.296875 -2.40625 -3.546875 -5.578125q-1.234375 -3.171875 -1.234375 -6.625z" fill-rule="nonzero"></path><path fill="#a61c00" d="m1661.7661 277.19067l0 0c0 -7.741516 6.275757 -14.017242 14.017334 -14.017242l63.440796 0c3.7176514 0 7.282959 1.4768066 9.911743 4.1055603c2.628662 2.6287231 4.1054688 6.1940613 4.1054688 9.911682l0 56.06729c0 7.7414856 -6.275635 14.017242 -14.017212 14.017242l-63.440796 0c-7.741577 0 -14.017334 -6.275757 -14.017334 -14.017242z" fill-rule="evenodd"></path><path stroke="#000000" stroke-width="1.0" stroke-linejoin="round" stroke-linecap="butt" d="m1661.7661 277.19067l0 0c0 -7.741516 6.275757 -14.017242 14.017334 -14.017242l63.440796 0c3.7176514 0 7.282959 1.4768066 9.911743 4.1055603c2.628662 2.6287231 4.1054688 6.1940613 4.1054688 9.911682l0 56.06729c0 7.7414856 -6.275635 14.017242 -14.017212 14.017242l-63.440796 0c-7.741577 0 -14.017334 -6.275757 -14.017334 -14.017242z" fill-rule="evenodd"></path><path fill="#000000" d="m1696.2382 282.7268l11.328125 16.890625l11.265625 -16.890625l9.53125 0l-16.1875 23.03125l15.6875 22.40625l-9.546875 0l-10.75 -16.25l-10.8125 16.25l-9.609375 0l15.6875 -22.40625l-16.1875 -23.03125l9.59375 0z" fill-rule="nonzero"></path><path fill="#ff9900" d="m2106.8171 277.19067l0 0c0 -7.741516 6.275635 -14.017242 14.01709 -14.017242l63.440918 0c3.7175293 0 7.282959 1.4768066 9.911621 4.1055603c2.6289062 2.6287231 4.105713 6.1940613 4.105713 9.911682l0 56.06729c0 7.7414856 -6.275879 14.017242 -14.017334 14.017242l-63.440918 0c-7.741455 0 -14.01709 -6.275757 -14.01709 -14.017242z" fill-rule="evenodd"></path><path stroke="#000000" stroke-width="1.0" stroke-linejoin="round" stroke-linecap="butt" d="m2106.8171 277.19067l0 0c0 -7.741516 6.275635 -14.017242 14.01709 -14.017242l63.440918 0c3.7175293 0 7.282959 1.4768066 9.911621 4.1055603c2.6289062 2.6287231 4.105713 6.1940613 4.105713 9.911682l0 56.06729c0 7.7414856 -6.275879 14.017242 -14.017334 14.017242l-63.440918 0c-7.741455 0 -14.01709 -6.275757 -14.01709 -14.017242z" fill-rule="evenodd"></path><path fill="#000000" d="m2139.5642 334.69556q1.09375 0.3125 2.109375 0.46875q1.03125 0.171875 1.734375 0.171875q0.828125 0 1.53125 -0.328125q0.703125 -0.3125 1.28125 -1.125q0.578125 -0.796875 1.140625 -2.203125q0.578125 -1.40625 1.21875 -3.515625l-13.234375 -33.53125l8.828125 0l9.078125 26.109375l8.078125 -26.109375l8.0625 0l-14.078125 40.1875q-1.21875 3.515625 -4.171875 5.75q-2.9375 2.25 -7.296875 2.25q-1.015625 0 -2.078125 -0.15625q-1.046875 -0.15625 -2.203125 -0.546875l0 -7.421875z" fill-rule="nonzero"></path><path fill="#000000" fill-opacity="0.0" d="m1753.2415 305.2243l335.6172 3.4713135" fill-rule="evenodd"></path><path stroke="#000000" stroke-width="8.0" stroke-linejoin="round" stroke-linecap="butt" d="m1753.2415 305.2243l287.61975 2.974884" fill-rule="evenodd"></path><path fill="#000000" stroke="#000000" stroke-width="8.0" stroke-linecap="butt" d="m2040.7245 321.41235l36.439575 -12.837677l-36.16626 -13.588623z" fill-rule="evenodd"></path><path fill="#000000" fill-opacity="0.0" d="m1678.5338 240.2461l166.98254 -178.1387l74.837036 69.282814l-166.98267 178.1387z" fill-rule="evenodd"></path><path fill="#000000" d="m1778.0138 260.32755l-21.624878 -20.020035q-7.2580566 -6.719345 -8.071533 -12.774246q-0.814209 -6.0769196 4.2615967 -11.491791q5.0544434 -5.3920746 11.781982 -5.1895294q6.7268066 0.18052673 12.631836 5.647293q5.9279785 5.4879913 6.7470703 12.016617q0.80773926 6.51799 -3.9154053 11.556671q-4.402588 4.696701 -9.970459 4.6734924l12.1883545 11.283829l-4.0285645 4.297699zm-21.729126 -41.110962q-2.9279785 3.12352 -2.2824707 7.255661q0.6446533 4.1101227 5.907593 8.982452q4.723999 4.373398 8.816406 4.691345q4.1029053 0.3065338 7.105713 -2.8968048q3.0133057 -3.2147217 2.4846191 -7.4942627q-0.54016113 -4.2901764 -5.2182617 -8.621124q-5.331787 -4.9360046 -9.688843 -4.9029083q-4.3465576 0.021713257 -7.124756 2.9856415z" fill-rule="nonzero"></path><path fill="#ff00ff" d="m1814.0414 180.58539l-7.0390625 32.00148l-7.3726807 -6.8255005l3.7011719 -17.291138l-17.368652 4.63797l-6.98291 -6.4645844l31.863037 -9.019836l3.1990967 2.961609z" fill-rule="nonzero"></path><path fill="#000000" d="m1849.09 136.341q3.244873 3.004074 5.097534 6.4652405q1.8634033 3.449768 2.3197021 6.938339q0.4555664 3.4665833 -0.5373535 6.741989q-1.0042725 3.264801 -3.4833984 5.9095306q-2.4685059 2.6333466 -5.6849365 3.8714447q-3.2174072 1.2160797 -6.739746 1.0212402q-3.5231934 -0.21687317 -7.128296 -1.8084717q-3.5944824 -1.6030121 -6.8393555 -4.607086q-3.244873 -3.0040588 -5.1082764 -6.453827q-1.8526611 -3.4611664 -2.3197021 -6.9383545q-0.45629883 -3.4885864 0.5250244 -6.7746124q0.9807129 -3.3080444 3.4490967 -5.9413757q2.479126 -2.6447449 5.7193604 -3.8395996q3.2287598 -1.2054596 6.751953 -0.9886017q3.5338135 0.2054596 7.128296 1.8084717q3.6052246 1.5916138 6.8500977 4.5956726zm-3.1523438 3.3629303q-2.6601562 -2.4627075 -5.435547 -3.7971497q-2.7868652 -1.3450775 -5.435425 -1.6039276q-2.6484375 -0.25886536 -5.047241 0.5865631q-2.399414 0.82341003 -4.2374268 2.7841644q-1.8807373 2.006363 -2.5479736 4.454666q-0.6682129 2.4263 -0.22094727 5.0335083q0.44726562 2.6072083 1.9946289 5.274643q1.5358887 2.6568146 4.195923 5.119507q2.6486816 2.4520874 5.435547 3.7971497q2.7868652 1.3450623 5.435425 1.6039276q2.6485596 0.25886536 5.013672 -0.5963898q2.3642578 -0.8772888 4.244995 -2.8836365q1.8380127 -1.9607544 2.5405273 -4.3552094q0.70166016 -2.4164581 0.25439453 -5.0236664q-0.44726562 -2.6072083 -1.9946289 -5.274643q-1.5472412 -2.6674347 -4.195923 -5.119507z" fill-rule="nonzero"></path><path fill="#000000" fill-opacity="0.0" d="m1988.1927 65.04844l183.23792 161.33273l-67.82251 76.10574l-183.23792 -161.3327z" fill-rule="evenodd"></path><path fill="#000000" d="m1976.9504 170.14995l19.606201 -22.000778q6.5804443 -7.3841553 12.650391 -8.347733q6.092163 -0.96492004 11.662598 3.9395905q5.546997 4.8838806 5.5079346 11.573837q-0.016845703 6.688629 -5.3706055 12.696259q-5.3745117 6.03096 -11.920776 7.012375q-6.5358887 0.96972656 -11.71936 -3.5940552q-4.831665 -4.2540436 -4.944702 -9.787079l-11.050537 12.400223l-4.4211426 -3.8926392zm40.816406 -22.645432q-3.2132568 -2.829132 -7.3533936 -2.0817566q-4.118164 0.7460327 -8.8897705 6.100418q-4.282959 4.8061066 -4.5025635 8.880524q-0.20788574 4.084732 3.0875244 6.986145q3.307129 2.9117432 7.5983887 2.2766113q4.301758 -0.6468048 8.543213 -5.4062653q4.8339844 -5.424362 4.6939697 -9.752899q-0.1282959 -4.3181915 -3.1773682 -7.002777z" fill-rule="nonzero"></path><path fill="#000000" d="m2035.8837 186.9801l2.1831055 -2.449707l15.1866455 13.371277l-2.1828613 2.4497223l-15.18689 -13.371292zm5.125 -5.750992l2.1831055 -2.4497223l15.18689 13.371292l-2.1831055 2.449707l-15.18689 -13.371277zm40.653687 57.84012l-2.7653809 3.1029663l-17.05127 -15.0130005l2.7651367 -3.1029816l7.1418457 6.2881165l19.076172 -21.405838q-0.9289551 0.24386597 -2.5378418 0.07646179q-1.597168 -0.15708923 -3.3220215 -0.5933533q-1.7145996 -0.44792175 -3.333252 -1.1444397q-1.6083984 -0.7081909 -2.5700684 -1.5548706l2.9421387 -3.3012848q1.1608887 1.0222168 3.1269531 1.5873413q1.9658203 0.5651245 3.9458008 0.8093872q1.9902344 0.23258972 3.5114746 0.23976135q1.5319824 -0.004501343 1.8439941 -0.16687012l3.5183105 3.0975952l-22.68335 25.453705l6.3913574 5.627304z" fill-rule="nonzero"></path><path fill="#000000" fill-opacity="0.0" d="m1914.1521 143.44823l-160.90173 161.78758" fill-rule="evenodd"></path><path stroke="#000000" stroke-width="8.0" stroke-linejoin="round" stroke-linecap="butt" d="m1914.1522 143.44823l-127.05408 127.75343" fill-rule="evenodd"></path><path fill="#000000" stroke="#000000" stroke-width="8.0" stroke-linecap="butt" d="m1777.729 261.88373l-16.23169 35.05966l34.970093 -16.423798z" fill-rule="evenodd"></path><path fill="#000000" fill-opacity="0.0" d="m1914.1521 143.44823l182.08887 156.04195" fill-rule="evenodd"></path><path stroke="#000000" stroke-width="8.0" stroke-linejoin="round" stroke-linecap="butt" d="m1914.1522 143.44823l145.64099 124.80791" fill-rule="evenodd"></path><path fill="#000000" stroke="#000000" stroke-width="8.0" stroke-linecap="butt" d="m2051.1948 278.28976l36.16577 13.5902405l-18.968994 -33.6575z" fill-rule="evenodd"></path><path fill="#000000" fill-opacity="0.0" d="m1795.4075 213.28755l245.24304 0l0 77.398544l-245.24304 0z" fill-rule="evenodd"></path><path fill="#000000" d="m1848.7935 299.60007l0 -29.46875q0 -9.890625 3.890625 -14.625015q3.90625 -4.75 11.328125 -4.75q7.390625 0 11.8125 5.046875q4.4375 5.0312653 4.4375 13.07814q0 8.078125 -4.234375 13.140625q-4.234375 5.046875 -11.140625 5.046875q-6.4375 0 -10.203125 -4.078125l0 16.609375l-5.890625 0zm15.40625 -43.968765q-4.28125 0 -6.875 3.2968903q-2.578125 3.28125 -2.578125 10.453125q0 6.4375 2.546875 9.640625q2.5625 3.203125 6.953125 3.203125q4.40625 0 7.1875 -3.3125q2.78125 -3.328125 2.78125 -9.703125q0 -7.265625 -2.984375 -10.421875q-2.96875 -3.1562653 -7.03125 -3.1562653z" fill-rule="nonzero"></path><path fill="#ff00ff" d="m1931.7861 271.35007l-28.265625 16.75l0 -10.046875l15.203125 -9.125l-15.203125 -9.5l0 -9.51564l28.265625 17.07814l0 4.359375z" fill-rule="nonzero"></path><path fill="#000000" d="m1988.0647 266.66257q0 4.421875 -1.28125 8.140625q-1.265625 3.71875 -3.515625 6.4375q-2.234375 2.703125 -5.3125 4.21875q-3.078125 1.5 -6.703125 1.5q-3.609375 0 -6.703125 -1.5q-3.078125 -1.515625 -5.328125 -4.21875q-2.234375 -2.71875 -3.515625 -6.4375q-1.265625 -3.71875 -1.265625 -8.140625q0 -4.421875 1.265625 -8.140625q1.28125 -3.7187653 3.515625 -6.4375153q2.25 -2.71875 5.328125 -4.25q3.09375 -1.546875 6.703125 -1.546875q3.625 0 6.703125 1.546875q3.078125 1.53125 5.3125 4.25q2.25 2.71875 3.515625 6.4375153q1.28125 3.71875 1.28125 8.140625zm-4.609375 0q0 -3.625 -0.90625 -6.5625q-0.90625 -2.953125 -2.515625 -5.0625153q-1.609375 -2.109375 -3.859375 -3.28125q-2.234375 -1.1875 -4.921875 -1.1875q-2.75 0 -5.0 1.1875q-2.234375 1.171875 -3.84375 3.28125q-1.609375 2.1093903 -2.515625 5.0625153q-0.90625 2.9375 -0.90625 6.5625q0 3.609375 0.90625 6.5625q0.90625 2.953125 2.515625 5.0625q1.609375 2.109375 3.84375 3.25q2.25 1.125 5.0 1.125q2.6875 0 4.921875 -1.125q2.25 -1.140625 3.859375 -3.25q1.609375 -2.109375 2.515625 -5.0625q0.90625 -2.953125 0.90625 -6.5625z" fill-rule="nonzero"></path><path fill="#4a86e8" d="m1868.4144 73.36369l0 0c0 -7.7415085 6.275757 -14.017242 14.017334 -14.017242l63.440796 0c3.7176514 0 7.282959 1.4768105 9.911743 4.1055565c2.628662 2.6287422 4.1054688 6.1940804 4.1054688 9.911686l0 56.06729c0 7.741501 -6.275635 14.017242 -14.017212 14.017242l-63.440796 0c-7.741577 0 -14.017334 -6.2757416 -14.017334 -14.017242z" fill-rule="evenodd"></path><path stroke="#000000" stroke-width="1.0" stroke-linejoin="round" stroke-linecap="butt" d="m1868.4144 73.36369l0 0c0 -7.7415085 6.275757 -14.017242 14.017334 -14.017242l63.440796 0c3.7176514 0 7.282959 1.4768105 9.911743 4.1055565c2.628662 2.6287422 4.1054688 6.1940804 4.1054688 9.911686l0 56.06729c0 7.741501 -6.275635 14.017242 -14.017212 14.017242l-63.440796 0c-7.741577 0 -14.017334 -6.2757416 -14.017334 -14.017242z" fill-rule="evenodd"></path><path fill="#000000" d="m1897.901 107.57171q0 -3.515625 1.203125 -6.65625q1.21875 -3.140625 3.515625 -5.5q2.3125 -2.375 5.578125 -3.78125q3.265625 -1.40625 7.359375 -1.40625q5.5 0 9.375 2.375q3.875 2.359375 5.796875 6.203125l-8.390625 2.5625q-1.078125 -1.859375 -2.875 -2.84375q-1.796875 -1.0 -3.96875 -1.0q-1.859375 0 -3.453125 0.734375q-1.59375 0.734375 -2.78125 2.046875q-1.1875 1.3125 -1.859375 3.171875q-0.671875 1.84375 -0.671875 4.09375q0 2.234375 0.703125 4.09375q0.703125 1.859375 1.890625 3.203125q1.1875 1.34375 2.78125 2.078125q1.59375 0.734375 3.390625 0.734375q2.3125 0 4.25 -1.140625q1.953125 -1.15625 2.734375 -2.828125l8.375 2.5625q-1.71875 3.84375 -5.6875 6.28125q-3.96875 2.421875 -9.546875 2.421875q-4.09375 0 -7.359375 -1.40625q-3.265625 -1.40625 -5.578125 -3.796875q-2.296875 -2.40625 -3.546875 -5.578125q-1.234375 -3.171875 -1.234375 -6.625z" fill-rule="nonzero"></path><path fill="#a61c00" d="m1653.7661 676.25696l0 0c0 -7.741455 6.275757 -14.017212 14.017334 -14.017212l63.440796 0c3.7176514 0 7.282959 1.4768066 9.911743 4.10553c2.628662 2.6287842 4.1054688 6.194092 4.1054688 9.911682l0 56.06732c0 7.741516 -6.275635 14.017212 -14.017212 14.017212l-63.440796 0c-7.741577 0 -14.017334 -6.275696 -14.017334 -14.017212z" fill-rule="evenodd"></path><path stroke="#000000" stroke-width="1.0" stroke-linejoin="round" stroke-linecap="butt" d="m1653.7661 676.25696l0 0c0 -7.741455 6.275757 -14.017212 14.017334 -14.017212l63.440796 0c3.7176514 0 7.282959 1.4768066 9.911743 4.10553c2.628662 2.6287842 4.1054688 6.194092 4.1054688 9.911682l0 56.06732c0 7.741516 -6.275635 14.017212 -14.017212 14.017212l-63.440796 0c-7.741577 0 -14.017334 -6.275696 -14.017334 -14.017212z" fill-rule="evenodd"></path><path fill="#000000" d="m1688.2382 681.79315l11.328125 16.890625l11.265625 -16.890625l9.53125 0l-16.1875 23.03125l15.6875 22.40625l-9.546875 0l-10.75 -16.25l-10.8125 16.25l-9.609375 0l15.6875 -22.40625l-16.1875 -23.03125l9.59375 0z" fill-rule="nonzero"></path><path fill="#ff9900" d="m2098.8171 676.25696l0 0c0 -7.741455 6.275635 -14.017212 14.01709 -14.017212l63.440918 0c3.7175293 0 7.282959 1.4768066 9.911621 4.10553c2.6289062 2.6287842 4.105713 6.194092 4.105713 9.911682l0 56.06732c0 7.741516 -6.275879 14.017212 -14.017334 14.017212l-63.440918 0c-7.741455 0 -14.01709 -6.275696 -14.01709 -14.017212z" fill-rule="evenodd"></path><path stroke="#000000" stroke-width="1.0" stroke-linejoin="round" stroke-linecap="butt" d="m2098.8171 676.25696l0 0c0 -7.741455 6.275635 -14.017212 14.01709 -14.017212l63.440918 0c3.7175293 0 7.282959 1.4768066 9.911621 4.10553c2.6289062 2.6287842 4.105713 6.194092 4.105713 9.911682l0 56.06732c0 7.741516 -6.275879 14.017212 -14.017334 14.017212l-63.440918 0c-7.741455 0 -14.01709 -6.275696 -14.01709 -14.017212z" fill-rule="evenodd"></path><path fill="#000000" d="m2131.5642 733.7619q1.09375 0.3125 2.109375 0.46875q1.03125 0.171875 1.734375 0.171875q0.828125 0 1.53125 -0.328125q0.703125 -0.3125 1.28125 -1.125q0.578125 -0.796875 1.140625 -2.203125q0.578125 -1.40625 1.21875 -3.515625l-13.234375 -33.53125l8.828125 0l9.078125 26.109375l8.078125 -26.109375l8.0625 0l-14.078125 40.1875q-1.21875 3.515625 -4.171875 5.75q-2.9375 2.25 -7.296875 2.25q-1.015625 0 -2.078125 -0.15625q-1.046875 -0.15625 -2.203125 -0.546875l0 -7.421875z" fill-rule="nonzero"></path><path fill="#000000" fill-opacity="0.0" d="m1745.2415 704.29065l335.6172 3.4713135" fill-rule="evenodd"></path><path stroke="#000000" stroke-width="8.0" stroke-linejoin="round" stroke-linecap="butt" d="m1745.2415 704.2906l287.61975 2.9749146" fill-rule="evenodd"></path><path fill="#000000" stroke="#000000" stroke-width="8.0" stroke-linecap="butt" d="m2032.7245 720.4787l36.439575 -12.8377075l-36.16626 -13.588623z" fill-rule="evenodd"></path><path fill="#000000" fill-opacity="0.0" d="m1670.5338 639.31244l166.98254 -178.13873l74.837036 69.28284l-166.98267 178.13867z" fill-rule="evenodd"></path><path fill="#000000" d="m1770.0138 659.39386l-21.624878 -20.02002q-7.2580566 -6.7193604 -8.071533 -12.774231q-0.814209 -6.0769653 4.2615967 -11.491821q5.0544434 -5.39209 11.781982 -5.189514q6.7268066 0.18054199 12.631836 5.647278q5.9279785 5.487976 6.7470703 12.016602q0.80773926 6.5180054 -3.9154053 11.556702q-4.402588 4.6966553 -9.970459 4.673462l12.1883545 11.2838745l-4.0285645 4.2976685zm-21.729126 -41.110962q-2.9279785 3.1235352 -2.2824707 7.2556763q0.6446533 4.1101074 5.907593 8.982422q4.723999 4.373413 8.816406 4.691345q4.1029053 0.30651855 7.105713 -2.8967896q3.0133057 -3.2147217 2.4846191 -7.4942627q-0.54016113 -4.290161 -5.2182617 -8.621094q-5.331787 -4.936035 -9.688843 -4.902954q-4.3465576 0.021728516 -7.124756 2.9856567z" fill-rule="nonzero"></path><path fill="#ff00ff" d="m1782.1759 598.7372l6.80896 -32.23578l6.982788 6.4645386l-3.4365234 17.557312l17.104126 -4.904114l7.3726807 6.8255005l-31.632935 9.25415l-3.1990967 -2.961609z" fill-rule="nonzero"></path><path fill="#000000" d="m1841.09 535.40735q3.244873 3.0040283 5.097534 6.46521q1.8634033 3.449768 2.3197021 6.9383545q0.4555664 3.4665527 -0.5373535 6.7420044q-1.0042725 3.2647705 -3.4833984 5.909485q-2.4685059 2.6333618 -5.6849365 3.87146q-3.2174072 1.2160645 -6.739746 1.0212402q-3.5231934 -0.21685791 -7.128296 -1.8084717q-3.5944824 -1.6030273 -6.8393555 -4.6070557q-3.244873 -3.0040894 -5.1082764 -6.4538574q-1.8526611 -3.4611816 -2.3197021 -6.9383545q-0.45629883 -3.4885864 0.5250244 -6.774597q0.9807129 -3.3080444 3.4490967 -5.9414062q2.479126 -2.6447144 5.7193604 -3.8395996q3.2287598 -1.2054443 6.751953 -0.9885864q3.5338135 0.20544434 7.128296 1.8084717q3.6052246 1.5916138 6.8500977 4.595703zm-3.1523438 3.362915q-2.6601562 -2.4627075 -5.435547 -3.7971802q-2.7868652 -1.3450317 -5.435425 -1.6038818q-2.6484375 -0.25891113 -5.047241 0.58654785q-2.399414 0.8234253 -4.2374268 2.7841797q-1.8807373 2.0063477 -2.5479736 4.454651q-0.6682129 2.4262695 -0.22094727 5.0335083q0.44726562 2.6071777 1.9946289 5.274597q1.5358887 2.6568604 4.195923 5.119568q2.6486816 2.4520874 5.435547 3.7971191q2.7868652 1.3450928 5.435425 1.6039429q2.6485596 0.2588501 5.013672 -0.59643555q2.3642578 -0.8772583 4.244995 -2.883606q1.8380127 -1.9607544 2.5405273 -4.3552246q0.70166016 -2.4164429 0.25439453 -5.0236206q-0.44726562 -2.6072388 -1.9946289 -5.274658q-1.5472412 -2.6674194 -4.195923 -5.119507z" fill-rule="nonzero"></path><path fill="#000000" fill-opacity="0.0" d="m1980.1927 464.11475l183.23792 161.3327l-67.82251 76.105774l-183.23792 -161.3327z" fill-rule="evenodd"></path><path fill="#000000" d="m1968.9504 569.21625l19.606201 -22.000793q6.5804443 -7.384094 12.650391 -8.347717q6.092163 -0.9649048 11.662598 3.9396362q5.546997 4.88385 5.5079346 11.5737915q-0.016845703 6.6886597 -5.3706055 12.696289q-5.3745117 6.030945 -11.920776 7.012329q-6.5358887 0.9697876 -11.71936 -3.5940552q-4.831665 -4.2540283 -4.944702 -9.787048l-11.050537 12.4002075l-4.4211426 -3.8926392zm40.816406 -22.645386q-3.2132568 -2.8291626 -7.3533936 -2.081787q-4.118164 0.7460327 -8.8897705 6.100403q-4.282959 4.8061523 -4.5025635 8.880554q-0.20788574 4.084717 3.0875244 6.986145q3.307129 2.9117432 7.5983887 2.2766113q4.301758 -0.6468506 8.543213 -5.40625q4.8339844 -5.4243774 4.6939697 -9.75293q-0.1282959 -4.3181763 -3.1773682 -7.0027466z" fill-rule="nonzero"></path><path fill="#000000" d="m2027.8837 586.04645l2.1831055 -2.449707l15.186768 13.371277l-2.1831055 2.449707l-15.186768 -13.371277zm5.125 -5.7510376l2.1831055 -2.449707l15.18689 13.371277l-2.1831055 2.449707l-15.18689 -13.371277zm40.653687 57.84015l-2.7653809 3.1029663l-17.05127 -15.0130005l2.7651367 -3.1029663l7.1418457 6.288086l19.076172 -21.405823q-0.9289551 0.24383545 -2.5378418 0.07647705q-1.597168 -0.15710449 -3.3220215 -0.5933838q-1.7145996 -0.447937 -3.333252 -1.1444092q-1.6083984 -0.7081909 -2.5700684 -1.5548706l2.9421387 -3.3013306q1.1608887 1.0222168 3.1269531 1.5873413q1.9658203 0.5651245 3.9458008 0.8093872q1.9902344 0.23260498 3.5114746 0.23980713q1.5319824 -0.0045166016 1.8439941 -0.16687012l3.5183105 3.0975952l-22.68335 25.453674l6.3913574 5.6273193z" fill-rule="nonzero"></path><path fill="#000000" fill-opacity="0.0" d="m1906.1521 542.5145l-160.90173 161.7876" fill-rule="evenodd"></path><path stroke="#000000" stroke-width="8.0" stroke-linejoin="round" stroke-linecap="butt" d="m1906.1522 542.5146l-127.05408 127.75342" fill-rule="evenodd"></path><path fill="#000000" stroke="#000000" stroke-width="8.0" stroke-linecap="butt" d="m1769.729 660.9501l-16.23169 35.05963l34.970093 -16.423767z" fill-rule="evenodd"></path><path fill="#000000" fill-opacity="0.0" d="m1906.1521 542.5145l182.08887 156.04199" fill-rule="evenodd"></path><path stroke="#000000" stroke-width="8.0" stroke-linejoin="round" stroke-linecap="butt" d="m1906.1522 542.5146l145.64099 124.80786" fill-rule="evenodd"></path><path fill="#000000" stroke="#000000" stroke-width="8.0" stroke-linecap="butt" d="m2043.195 677.3561l36.16565 13.590271l-18.968994 -33.65753z" fill-rule="evenodd"></path><path fill="#000000" fill-opacity="0.0" d="m1787.4075 612.3539l245.24304 0l0 77.3985l-245.24304 0z" fill-rule="evenodd"></path><path fill="#000000" d="m1840.7935 698.6664l0 -29.46875q0 -9.890625 3.890625 -14.625q3.90625 -4.75 11.328125 -4.75q7.390625 0 11.8125 5.046875q4.4375 5.03125 4.4375 13.078125q0 8.078125 -4.234375 13.140625q-4.234375 5.046875 -11.140625 5.046875q-6.4375 0 -10.203125 -4.078125l0 16.609375l-5.890625 0zm15.40625 -43.96875q-4.28125 0 -6.875 3.296875q-2.578125 3.28125 -2.578125 10.453125q0 6.4375 2.546875 9.640625q2.5625 3.203125 6.953125 3.203125q4.40625 0 7.1875 -3.3125q2.78125 -3.328125 2.78125 -9.703125q0 -7.265625 -2.984375 -10.421875q-2.96875 -3.15625 -7.03125 -3.15625z" fill-rule="nonzero"></path><path fill="#ff00ff" d="m1893.5674 666.057l28.28125 -17.078125l0 9.515625l-15.21875 9.5l15.21875 9.125l0 10.046875l-28.28125 -16.75l0 -4.359375z" fill-rule="nonzero"></path><path fill="#000000" d="m1980.0647 665.7289q0 4.421875 -1.28125 8.140625q-1.265625 3.71875 -3.515625 6.4375q-2.234375 2.703125 -5.3125 4.21875q-3.078125 1.5 -6.703125 1.5q-3.609375 0 -6.703125 -1.5q-3.078125 -1.515625 -5.328125 -4.21875q-2.234375 -2.71875 -3.515625 -6.4375q-1.265625 -3.71875 -1.265625 -8.140625q0 -4.421875 1.265625 -8.140625q1.28125 -3.71875 3.515625 -6.4375q2.25 -2.71875 5.328125 -4.25q3.09375 -1.546875 6.703125 -1.546875q3.625 0 6.703125 1.546875q3.078125 1.53125 5.3125 4.25q2.25 2.71875 3.515625 6.4375q1.28125 3.71875 1.28125 8.140625zm-4.609375 0q0 -3.625 -0.90625 -6.5625q-0.90625 -2.953125 -2.515625 -5.0625q-1.609375 -2.109375 -3.859375 -3.28125q-2.234375 -1.1875 -4.921875 -1.1875q-2.75 0 -5.0 1.1875q-2.234375 1.171875 -3.84375 3.28125q-1.609375 2.109375 -2.515625 5.0625q-0.90625 2.9375 -0.90625 6.5625q0 3.609375 0.90625 6.5625q0.90625 2.953125 2.515625 5.0625q1.609375 2.109375 3.84375 3.25q2.25 1.125 5.0 1.125q2.6875 0 4.921875 -1.125q2.25 -1.140625 3.859375 -3.25q1.609375 -2.109375 2.515625 -5.0625q0.90625 -2.953125 0.90625 -6.5625z" fill-rule="nonzero"></path><path fill="#4a86e8" d="m1860.4144 472.43002l0 0c0 -7.741516 6.275757 -14.017242 14.017334 -14.017242l63.440796 0c3.7176514 0 7.282959 1.4768066 9.911743 4.10553c2.628662 2.6287537 4.1054688 6.194092 4.1054688 9.911713l0 56.06729c0 7.741516 -6.275635 14.017212 -14.017212 14.017212l-63.440796 0c-7.741577 0 -14.017334 -6.275696 -14.017334 -14.017212z" fill-rule="evenodd"></path><path stroke="#000000" stroke-width="1.0" stroke-linejoin="round" stroke-linecap="butt" d="m1860.4144 472.43002l0 0c0 -7.741516 6.275757 -14.017242 14.017334 -14.017242l63.440796 0c3.7176514 0 7.282959 1.4768066 9.911743 4.10553c2.628662 2.6287537 4.1054688 6.194092 4.1054688 9.911713l0 56.06729c0 7.741516 -6.275635 14.017212 -14.017212 14.017212l-63.440796 0c-7.741577 0 -14.017334 -6.275696 -14.017334 -14.017212z" fill-rule="evenodd"></path><path fill="#000000" d="m1889.901 506.63803q0 -3.515625 1.203125 -6.65625q1.21875 -3.140625 3.515625 -5.5q2.3125 -2.375 5.578125 -3.78125q3.265625 -1.40625 7.359375 -1.40625q5.5 0 9.375 2.375q3.875 2.359375 5.796875 6.203125l-8.390625 2.5625q-1.078125 -1.859375 -2.875 -2.84375q-1.796875 -1.0 -3.96875 -1.0q-1.859375 0 -3.453125 0.734375q-1.59375 0.734375 -2.78125 2.046875q-1.1875 1.3125 -1.859375 3.171875q-0.671875 1.84375 -0.671875 4.09375q0 2.234375 0.703125 4.09375q0.703125 1.8594055 1.890625 3.2031555q1.1875 1.34375 2.78125 2.078125q1.59375 0.734375 3.390625 0.734375q2.3125 0 4.25 -1.140625q1.953125 -1.15625 2.734375 -2.828125l8.375 2.5625q-1.71875 3.84375 -5.6875 6.28125q-3.96875 2.421875 -9.546875 2.421875q-4.09375 0 -7.359375 -1.40625q-3.265625 -1.40625 -5.578125 -3.796875q-2.296875 -2.40625 -3.546875 -5.578125q-1.234375 -3.1719055 -1.234375 -6.6250305z" fill-rule="nonzero"></path><path fill="#000000" fill-opacity="0.0" d="m648.7572 202.37665l137.29138 0.4094391" fill-rule="evenodd"></path><path stroke="#000000" stroke-width="8.0" stroke-linejoin="round" stroke-linecap="butt" d="m648.7572 202.37665l89.291626 0.2662964" fill-rule="evenodd"></path><path fill="#000000" stroke="#000000" stroke-width="8.0" stroke-linecap="butt" d="m738.00934 215.85674l36.344055 -13.10553l-36.265198 -13.322067z" fill-rule="evenodd"></path><path fill="#000000" fill-opacity="0.0" d="m1452.0332 302.51706l144.0 1.8897705" fill-rule="evenodd"></path><path stroke="#000000" stroke-width="8.0" stroke-linejoin="round" stroke-linecap="butt" d="m1452.0333 302.51706l96.00403 1.2599182" fill-rule="evenodd"></path><path fill="#000000" stroke="#000000" stroke-width="8.0" stroke-linecap="butt" d="m1547.864 316.9897l36.475098 -12.736328l-36.128296 -13.689117z" fill-rule="evenodd"></path><path fill="#000000" fill-opacity="0.0" d="m1459.1746 304.3937l158.04724 279.40158" fill-rule="evenodd"></path><path stroke="#000000" stroke-width="8.0" stroke-linejoin="round" stroke-linecap="butt" d="m1459.1746 304.3937l134.4143 237.62253" fill-rule="evenodd"></path><path fill="#000000" stroke="#000000" stroke-width="8.0" stroke-linecap="butt" d="m1582.0876 548.5221l29.375977 25.093689l-6.373413 -38.105408z" fill-rule="evenodd"></path></g></svg>

