<?xml version="1.0" standalone="yes"?>

<svg version="1.1" viewBox="0.0 0.0 960.0 720.0" fill="none" stroke="none" stroke-linecap="square" stroke-miterlimit="10" xmlns="http://www.w3.org/2000/svg" xmlns:xlink="http://www.w3.org/1999/xlink"><clipPath id="p.0"><path d="m0 0l960.0 0l0 720.0l-960.0 0l0 -720.0z" clip-rule="nonzero"></path></clipPath><g clip-path="url(#p.0)"><path fill="#000000" fill-opacity="0.0" d="m0 0l960.0 0l0 720.0l-960.0 0z" fill-rule="evenodd"></path><path fill="#a61c00" d="m223.82259 316.963l0 0c0 -7.7414856 6.2757263 -14.017242 14.017242 -14.017242l63.44084 0c3.7176208 0 7.282959 1.4768372 9.911713 4.1055603c2.6287231 2.6287537 4.10553 6.194092 4.10553 9.911682l0 56.06729c0 7.741516 -6.2757263 14.017242 -14.017242 14.017242l-63.44084 0c-7.741516 0 -14.017242 -6.2757263 -14.017242 -14.017242z" fill-rule="evenodd"></path><path stroke="#000000" stroke-width="1.0" stroke-linejoin="round" stroke-linecap="butt" d="m223.82259 316.963l0 0c0 -7.7414856 6.2757263 -14.017242 14.017242 -14.017242l63.44084 0c3.7176208 0 7.282959 1.4768372 9.911713 4.1055603c2.6287231 2.6287537 4.10553 6.194092 4.10553 9.911682l0 56.06729c0 7.741516 -6.2757263 14.017242 -14.017242 14.017242l-63.44084 0c-7.741516 0 -14.017242 -6.2757263 -14.017242 -14.017242z" fill-rule="evenodd"></path><path fill="#000000" d="m258.29453 322.49918l11.328125 16.890625l11.265625 -16.890625l9.53125 0l-16.1875 23.03125l15.6875 22.40625l-9.546875 0l-10.75 -16.25l-10.8125 16.25l-9.60936 0l15.687485 -22.40625l-16.187485 -23.03125l9.593735 0z" fill-rule="nonzero"></path><path fill="#ff9900" d="m668.8735 316.963l0 0c0 -7.7414856 6.275757 -14.017242 14.017273 -14.017242l63.440857 0c3.7175903 0 7.282959 1.4768372 9.911682 4.1055603c2.6287231 2.6287537 4.10553 6.194092 4.10553 9.911682l0 56.06729c0 7.741516 -6.275696 14.017242 -14.017212 14.017242l-63.440857 0c-7.741516 0 -14.017273 -6.2757263 -14.017273 -14.017242z" fill-rule="evenodd"></path><path stroke="#000000" stroke-width="1.0" stroke-linejoin="round" stroke-linecap="butt" d="m668.8735 316.963l0 0c0 -7.7414856 6.275757 -14.017242 14.017273 -14.017242l63.440857 0c3.7175903 0 7.282959 1.4768372 9.911682 4.1055603c2.6287231 2.6287537 4.10553 6.194092 4.10553 9.911682l0 56.06729c0 7.741516 -6.275696 14.017242 -14.017212 14.017242l-63.440857 0c-7.741516 0 -14.017273 -6.2757263 -14.017273 -14.017242z" fill-rule="evenodd"></path><path fill="#000000" d="m701.62054 374.46793q1.09375 0.3125 2.109375 0.46875q1.03125 0.171875 1.734375 0.171875q0.828125 0 1.53125 -0.328125q0.703125 -0.3125 1.28125 -1.125q0.578125 -0.796875 1.140625 -2.203125q0.578125 -1.40625 1.21875 -3.515625l-13.234375 -33.53125l8.828125 0l9.078125 26.109375l8.078125 -26.109375l8.0625 0l-14.078125 40.1875q-1.21875 3.515625 -4.171875 5.75q-2.9375 2.25 -7.296875 2.25q-1.015625 0 -2.078125 -0.15625q-1.046875 -0.15625 -2.203125 -0.546875l0 -7.421875z" fill-rule="nonzero"></path><path fill="#000000" fill-opacity="0.0" d="m315.2979 344.99667l335.61707 3.4713135" fill-rule="evenodd"></path><path stroke="#000000" stroke-width="8.0" stroke-linejoin="round" stroke-linecap="butt" d="m315.2979 344.99667l287.61963 2.9748535" fill-rule="evenodd"></path><path fill="#000000" stroke="#000000" stroke-width="8.0" stroke-linecap="butt" d="m602.7809 361.1847l36.439514 -12.837677l-36.1662 -13.588623z" fill-rule="evenodd"></path><path fill="#000000" fill-opacity="0.0" d="m240.59024 280.01846l166.9826 -178.13873l74.836914 69.282814l-166.9826 178.13872z" fill-rule="evenodd"></path><path fill="#000000" d="m344.92514 294.92065l-21.624939 -20.02002q-7.258026 -6.7193604 -8.071442 -12.774261q-0.8142395 -6.0769043 4.2615356 -11.4917755q5.0543823 -5.3920746 11.782013 -5.1895294q6.726837 0.18052673 12.631836 5.647293q5.927948 5.4879913 6.747101 12.016617q0.8076477 6.517975 -3.9154663 11.556671q-4.4025574 4.696686 -9.9704895 4.6734924l12.188416 11.283813l-4.0285645 4.297699zm-21.729218 -41.110947q-2.9279175 3.12352 -2.2824402 7.255661q0.64471436 4.1101074 5.9076233 8.982452q4.7240295 4.373413 8.816345 4.691345q4.1030273 0.30651855 7.1057434 -2.8967896q3.0133972 -3.2147522 2.4846497 -7.494293q-0.54019165 -4.290161 -5.2183228 -8.621109q-5.331726 -4.9360046 -9.688843 -4.9029083q-4.3464355 0.021697998 -7.124756 2.9856415z" fill-rule="nonzero"></path><path fill="#000000" d="m363.36438 236.7749l-2.407898 -2.2291718l13.838165 -14.762665l2.4078674 2.2291718l-13.838135 14.762665zm-5.652771 -5.2332306l-2.4078674 -2.2291718l13.838135 -14.762665l2.4078674 2.2291718l-13.838135 14.762665zm40.786224 -33.024307q-3.2449036 -3.0040588 -4.2193604 -5.779953q-0.9859619 -2.7865143 -0.2390747 -6.119339q0.3227539 -1.5323639 0.8049927 -3.2577362q0.48147583 -1.7473907 0.56033325 -3.5907288q0.08950806 -1.8547363 -0.474823 -3.6973267q-0.57580566 -1.8532104 -2.3874512 -3.5303955q-1.6281738 -1.5073395 -3.3434753 -2.0307007q-1.7046204 -0.5347748 -3.3834534 -0.3430481q-1.679657 0.16970825 -3.1914978 1.0057678q-1.523346 0.82543945 -2.7094727 2.0908203q-2.4790955 2.6447296 -2.9677124 6.0675964q-0.5001221 3.412262 0.60595703 6.459015l-3.6269836 0.9220123q-0.8838196 -2.0957947 -1.0603638 -4.260727q-0.17654419 -2.1649323 0.2817688 -4.2531433q0.44683838 -2.0988464 1.476654 -4.0199585q1.0183411 -1.9317169 2.535736 -3.550476q1.6990356 -1.812561 3.8752136 -2.9917603q2.1647034 -1.1898346 4.6066284 -1.4416504q2.4304504 -0.26242065 4.955719 0.5849304q2.5244446 0.8253479 4.886444 3.0120544q1.9606934 1.8151703 2.7901 3.6263428q0.8293762 1.8111572 0.9392395 3.6588287q0.120513916 1.8362885 -0.30130005 3.7027893q-0.4111023 1.8551025 -0.8665161 3.7117767q-0.32977295 1.3342285 -0.55111694 2.5984955q-0.21066284 1.2528534 0.005004883 2.6449127q0.21569824 1.3920593 1.0547485 2.8502045q0.8275757 1.447525 2.604828 3.092865l-2.6607666 2.8385315zm9.983032 9.135666l-5.2629395 -4.8723297l2.7035217 -2.8841248l5.262909 4.8723145l-2.7034912 2.88414z" fill-rule="nonzero"></path><path fill="#000000" fill-opacity="0.0" d="m550.2492 104.82079l183.23792 161.3327l-67.82245 76.105774l-183.23798 -161.33272z" fill-rule="evenodd"></path><path fill="#000000" d="m539.00684 209.9223l19.606201 -22.000778q6.5805054 -7.38414 12.650452 -8.347733q6.092102 -0.96492004 11.662537 3.9396057q5.546997 4.8838654 5.5079956 11.573822q-0.016845703 6.688629 -5.3706055 12.696259q-5.3745728 6.0309753 -11.920837 7.012375q-6.5358887 0.96972656 -11.71936 -3.5940552q-4.831604 -4.2540283 -4.944641 -9.787079l-11.050598 12.400223l-4.4211426 -3.8926392zm40.816467 -22.645432q-3.2132568 -2.829132 -7.3534546 -2.0817566q-4.118103 0.7460327 -8.889709 6.100418q-4.28302 4.8061066 -4.5025635 8.880524q-0.20788574 4.0847473 3.0874634 6.9861603q3.307129 2.911728 7.5984497 2.276596q4.301697 -0.6468048 8.543152 -5.40625q4.8339844 -5.4243774 4.694031 -9.752899q-0.1282959 -4.318207 -3.1773682 -7.0027924z" fill-rule="nonzero"></path><path fill="#000000" d="m597.94006 226.75246l2.1831055 -2.449707l15.186829 13.371277l-2.1831055 2.4497223l-15.186829 -13.371292zm5.125061 -5.750992l2.1831055 -2.4497223l15.186829 13.371292l-2.1831055 2.449707l-15.186829 -13.371277zm40.653564 57.84012l-2.7651978 3.1029663l-17.051453 -15.0130005l2.7652588 -3.1029663l7.1419067 6.2881165l19.07605 -21.405853q-0.9289551 0.24386597 -2.5377808 0.07646179q-1.5971069 -0.15708923 -3.3220825 -0.593338q-1.7146606 -0.447937 -3.333313 -1.144455q-1.6082764 -0.7081909 -2.5698853 -1.5548553l2.9419556 -3.3012848q1.1610107 1.0222015 3.1269531 1.587326q1.9660034 0.5651398 3.9458618 0.8093872q1.9902344 0.23258972 3.5116577 0.23976135q1.5317993 -0.004501343 1.8439331 -0.16687012l3.5181274 3.0975952l-22.68335 25.45372l6.3913574 5.627289z" fill-rule="nonzero"></path><path fill="#000000" fill-opacity="0.0" d="m476.2086 183.22058l-160.9018 161.7876" fill-rule="evenodd"></path><path stroke="#000000" stroke-width="8.0" stroke-linejoin="round" stroke-linecap="butt" d="m476.2086 183.22058l-127.053986 127.75342" fill-rule="evenodd"></path><path fill="#000000" stroke="#000000" stroke-width="8.0" stroke-linecap="butt" d="m339.78537 301.65607l-16.231567 35.05966l34.97003 -16.423798z" fill-rule="evenodd"></path><path fill="#000000" fill-opacity="0.0" d="m476.2086 183.22058l182.08884 156.04193" fill-rule="evenodd"></path><path stroke="#000000" stroke-width="8.0" stroke-linejoin="round" stroke-linecap="butt" d="m476.2086 183.22058l145.64108 124.80789" fill-rule="evenodd"></path><path fill="#000000" stroke="#000000" stroke-width="8.0" stroke-linecap="butt" d="m613.25134 318.06213l36.16559 13.59021l-18.968811 -33.6575z" fill-rule="evenodd"></path><path fill="#000000" fill-opacity="0.0" d="m357.46396 253.0599l245.24295 0l0 77.39853l-245.24295 0z" fill-rule="evenodd"></path><path fill="#000000" d="m417.94873 339.3724l0 -29.46875q0 -9.890625 3.890625 -14.625q3.90625 -4.75 11.328125 -4.75q7.390625 0 11.8125 5.046875q4.4375 5.03125 4.4375 13.078125q0 8.078125 -4.234375 13.140625q-4.234375 5.046875 -11.140625 5.046875q-6.4375 0 -10.203125 -4.078125l0 16.609375l-5.890625 0zm15.40625 -43.96875q-4.28125 0 -6.875 3.296875q-2.578125 3.28125 -2.578125 10.453125q0 6.4375 2.546875 9.640625q2.5625 3.203125 6.953125 3.203125q4.40625 0 7.1875 -3.3125q2.78125 -3.328125 2.78125 -9.703125q0 -7.265625 -2.984375 -10.421875q-2.96875 -3.15625 -7.03125 -3.15625z" fill-rule="nonzero"></path><path fill="#000000" d="m473.1446 313.0599l0 -3.28125l20.234406 0l0 3.28125l-20.234406 0zm0 -7.703125l0 -3.28125l20.234406 0l0 3.28125l-20.234406 0zm51.94287 7.171875q0 -4.421875 1.375 -7.03125q1.375 -2.625 4.328125 -4.359375q1.34375 -0.8125 2.9375 -1.640625q1.609375 -0.84375 3.015625 -2.046875q1.421875 -1.203125 2.390625 -2.875q0.96875 -1.6875 0.96875 -4.15625q0 -2.21875 -0.78125 -3.828125q-0.765625 -1.609375 -2.046875 -2.703125q-1.265625 -1.109375 -2.90625 -1.640625q-1.640625 -0.546875 -3.375 -0.546875q-3.625 0 -6.46875 1.984375q-2.84375 1.96875 -4.328125 4.859375l-3.140625 -2.015625q0.9375 -2.078125 2.40625 -3.6875q1.46875 -1.609375 3.3125 -2.703125q1.84375 -1.109375 3.953125 -1.671875q2.109375 -0.578125 4.328125 -0.578125q2.484375 0 4.828125 0.78125q2.34375 0.765625 4.1875 2.375q1.84375 1.59375 2.9375 4.015625q1.109375 2.40625 1.109375 5.625q0 2.671875 -0.765625 4.515625q-0.765625 1.84375 -2.046875 3.1875q-1.265625 1.34375 -2.921875 2.3125q-1.640625 0.96875 -3.3125 1.90625q-1.203125 0.671875 -2.28125 1.375q-1.0625 0.703125 -1.9375 1.8125q-0.875 1.109375 -1.375 2.71875q-0.5 1.59375 -0.5 4.015625l-3.890625 0zm0.078125 13.53125l0 -7.171875l3.953125 0l0 7.171875l-3.953125 0z" fill-rule="nonzero"></path><path fill="#4a86e8" d="m430.47092 113.13605l0 0c0 -7.7415085 6.2757263 -14.017242 14.017242 -14.017242l63.440857 0c3.7175903 0 7.282959 1.4768143 9.911682 4.1055603c2.6287231 2.6287384 4.10553 6.194084 4.10553 9.911682l0 56.06729c0 7.741516 -6.275696 14.017242 -14.017212 14.017242l-63.440857 0c-7.741516 0 -14.017242 -6.2757263 -14.017242 -14.017242z" fill-rule="evenodd"></path><path stroke="#000000" stroke-width="1.0" stroke-linejoin="round" stroke-linecap="butt" d="m430.47092 113.13605l0 0c0 -7.7415085 6.2757263 -14.017242 14.017242 -14.017242l63.440857 0c3.7175903 0 7.282959 1.4768143 9.911682 4.1055603c2.6287231 2.6287384 4.10553 6.194084 4.10553 9.911682l0 56.06729c0 7.741516 -6.275696 14.017242 -14.017212 14.017242l-63.440857 0c-7.741516 0 -14.017242 -6.2757263 -14.017242 -14.017242z" fill-rule="evenodd"></path><path fill="#000000" d="m459.9575 147.34407q0 -3.515625 1.203125 -6.65625q1.21875 -3.140625 3.515625 -5.5q2.3125 -2.375 5.578125 -3.78125q3.265625 -1.40625 7.359375 -1.40625q5.5 0 9.375 2.375q3.875 2.359375 5.796875 6.203125l-8.390625 2.5625q-1.078125 -1.859375 -2.875 -2.84375q-1.796875 -1.0 -3.96875 -1.0q-1.859375 0 -3.453125 0.734375q-1.59375 0.734375 -2.78125 2.046875q-1.1875 1.3125 -1.859375 3.171875q-0.671875 1.84375 -0.671875 4.09375q0 2.234375 0.703125 4.09375q0.703125 1.859375 1.890625 3.203125q1.1875 1.34375 2.78125 2.078125q1.59375 0.734375 3.390625 0.734375q2.3125 0 4.25 -1.140625q1.953125 -1.15625 2.734375 -2.828125l8.375 2.5625q-1.71875 3.84375 -5.6875 6.28125q-3.96875 2.421875 -9.546875 2.421875q-4.09375 0 -7.359375 -1.40625q-3.265625 -1.40625 -5.578125 -3.796875q-2.296875 -2.40625 -3.546875 -5.578125q-1.234375 -3.171875 -1.234375 -6.625z" fill-rule="nonzero"></path></g></svg>

